<?xml version="1.0" standalone="no"?>
<!DOCTYPE svg PUBLIC "-//W3C//DTD SVG 20010904//EN"
 "http://www.w3.org/TR/2001/REC-SVG-20010904/DTD/svg10.dtd">
<svg version="1.0" xmlns="http://www.w3.org/2000/svg"
 width="274.000000pt" height="284.000000pt" viewBox="0 0 274.000000 284.000000"
 preserveAspectRatio="xMidYMid meet">
<metadata>
Created by potrace 1.16, written by Peter Selinger 2001-2019
</metadata>
<g transform="translate(0.000000,284.000000) scale(0.100000,-0.100000)"
fill="#000000" stroke="none">
<path d="M1310 2755 c-29 -30 -40 -35 -82 -35 l-48 0 0 -47 c0 -39 -5 -52 -32
-80 l-32 -33 32 -33 c28 -28 32 -40 32 -85 l0 -52 52 0 c46 0 56 -4 89 -35
l36 -36 27 36 c25 33 31 35 82 35 l54 0 0 48 c0 42 5 52 35 82 l35 34 -35 36
c-30 31 -35 43 -35 83 l0 47 -48 0 c-42 0 -53 5 -82 35 -19 19 -37 35 -40 35
-3 0 -21 -16 -40 -35z m83 -66 c20 -5 37 -14 37 -19 0 -4 -17 -6 -37 -4 -83
11 -146 -76 -110 -151 23 -48 58 -69 107 -62 52 7 52 -9 -1 -23 -51 -14 -91
-6 -129 26 -74 63 -58 183 32 227 39 20 51 20 101 6z"/>
<path d="M1770 2630 c0 -3 17 -15 38 -25 20 -10 30 -20 22 -21 -8 -1 -54 -8
-102 -14 -132 -18 -131 -17 -69 -140 49 -94 51 -101 29 -94 -64 20 -93 23
-107 9 -11 -11 -7 -17 30 -40 150 -93 228 -162 290 -258 79 -122 105 -275 70
-408 -19 -73 -71 -192 -89 -203 -4 -2 -27 4 -51 15 -24 10 -61 19 -83 19 -22
0 -85 12 -141 26 -96 24 -125 25 -184 8 -37 -10 -27 13 18 41 25 16 47 24 60
20 30 -10 36 22 8 51 -43 46 -105 66 -186 61 -45 -2 -83 1 -102 9 -22 9 -31
10 -34 1 -5 -14 12 -56 30 -75 7 -7 13 -17 13 -22 0 -5 9 -12 20 -15 23 -7 20
-37 -6 -64 -12 -13 -18 -13 -45 0 -29 14 -39 13 -118 -9 -47 -13 -104 -27
-126 -31 -22 -5 -53 -13 -68 -20 -45 -18 -51 -14 -81 47 -53 106 -66 158 -66
259 0 209 113 397 310 513 79 48 86 55 71 74 -9 10 -21 12 -49 5 -28 -6 -41
-4 -51 6 -13 13 -12 18 8 39 13 14 21 29 17 34 -3 5 4 32 14 61 l20 51 -26 10
c-14 6 -33 10 -43 10 -10 0 -25 10 -33 21 -12 18 -17 20 -35 11 -17 -9 -22 -9
-27 4 -4 11 -13 13 -27 9 -13 -5 -25 -2 -29 6 -7 10 -16 10 -49 -3 -24 -10
-43 -12 -47 -7 -7 12 -109 -42 -151 -81 -17 -15 -39 -40 -48 -54 -10 -15 -27
-26 -39 -26 -22 0 -83 -39 -97 -62 -7 -10 -11 -10 -21 0 -19 19 -24 15 -54
-53 -16 -35 -35 -65 -41 -65 -7 0 -13 -9 -13 -20 0 -35 -21 -67 -56 -84 -21
-9 -34 -22 -32 -31 5 -23 -64 -125 -84 -125 -15 0 -18 -10 -18 -70 0 -65 -3
-73 -41 -130 -23 -33 -43 -74 -45 -92 -2 -18 -9 -69 -15 -113 -6 -44 -9 -114
-6 -155 11 -148 12 -232 5 -236 -13 -8 -9 -38 11 -76 18 -36 18 -37 -2 -56
-20 -20 -20 -20 12 -36 25 -13 44 -43 95 -144 35 -70 82 -151 105 -179 64 -81
82 -115 70 -130 -8 -9 -5 -15 15 -24 27 -13 33 -24 16 -34 -19 -12 -10 -21 41
-39 27 -10 57 -29 65 -42 9 -13 31 -28 50 -34 38 -13 38 -13 24 -40 -9 -17 -5
-23 27 -43 21 -14 45 -32 53 -42 19 -23 71 -45 106 -45 22 0 24 -3 15 -14 -10
-12 -4 -19 33 -41 27 -16 64 -28 88 -29 32 -2 44 -7 46 -20 3 -13 10 -16 28
-12 17 5 24 2 24 -9 0 -18 14 -19 41 -4 16 8 23 7 32 -4 7 -8 71 -29 142 -46
72 -18 138 -34 148 -37 14 -4 17 1 17 30 0 38 28 76 55 76 22 0 52 -38 60 -76
5 -29 9 -33 28 -29 12 3 78 19 146 34 68 16 126 33 130 39 3 5 33 12 66 15 33
2 94 17 135 32 87 33 88 34 72 44 -7 4 27 26 88 56 55 27 99 54 96 60 -2 6 38
42 89 80 59 44 89 72 82 77 -8 5 14 32 63 78 45 42 68 70 58 70 -13 0 -3 20
37 75 29 41 59 92 66 112 6 21 23 61 37 88 14 28 28 64 33 80 4 17 25 82 48
145 23 63 41 116 41 117 0 1 -7 0 -15 -3 -11 -5 -13 1 -7 33 17 93 0 418 -25
468 -24 49 -40 109 -54 200 -10 72 -15 84 -29 80 -13 -4 -26 14 -58 84 -23 49
-42 95 -42 102 0 10 -3 10 -12 1 -10 -10 -22 2 -55 55 -24 36 -43 71 -43 76 0
5 -6 7 -14 4 -9 -4 -41 25 -88 79 -40 46 -74 80 -76 74 -5 -14 -91 43 -137 89
-44 46 -56 51 -48 20 5 -16 2 -20 -8 -16 -79 32 -259 72 -259 57z m123 -101
c64 -33 85 -79 46 -100 -38 -20 -94 -4 -169 49 -63 44 -69 51 -48 55 48 9 150
7 171 -4z m-874 -25 c2 -2 -7 -20 -19 -41 -14 -23 -18 -39 -11 -41 18 -6 12
-18 -15 -31 -25 -11 -25 -13 -10 -30 15 -16 15 -20 2 -30 -23 -19 -76 -4 -76
20 0 11 6 21 13 23 6 2 21 7 32 12 l20 7 -20 4 c-48 10 -50 13 -20 38 35 27
28 44 -8 20 -30 -19 -41 -7 -28 28 7 19 19 27 43 29 31 4 89 -1 97 -8z m-181
-60 c29 -6 41 -38 31 -82 -4 -18 -3 -47 2 -64 7 -28 4 -34 -36 -74 -41 -41
-63 -52 -78 -38 -3 3 -1 17 5 30 8 18 7 28 -4 46 -14 22 -14 26 3 47 31 39 25
52 -21 45 -37 -6 -40 -5 -51 22 -10 28 -11 28 -25 10 -8 -11 -14 -37 -14 -58
0 -45 -11 -48 -39 -12 -40 50 -20 109 40 119 22 4 41 11 45 16 5 8 87 4 142
-7z m-345 -78 c-24 -21 -25 -24 -8 -23 11 1 23 6 26 10 4 5 9 -3 13 -18 5 -20
11 -25 26 -20 17 5 18 3 8 -31 -7 -27 -7 -39 2 -44 14 -9 -35 -70 -56 -70 -20
0 -17 9 9 30 12 10 19 22 15 26 -5 4 -16 0 -26 -9 -42 -38 -56 -6 -22 51 15
25 17 32 6 32 -8 0 -25 -22 -38 -50 -27 -58 -38 -63 -38 -17 0 24 -3 28 -10
17 -5 -8 -7 -29 -4 -46 3 -19 1 -35 -5 -39 -13 -7 -54 37 -41 45 4 3 10 16 14
30 17 58 29 81 37 69 5 -10 20 0 52 34 24 26 49 47 56 47 7 0 -1 -11 -16 -24z
m1841 -55 c48 -69 52 -141 7 -141 -36 0 -73 72 -86 169 l-7 54 29 -21 c16 -11
42 -39 57 -61z m-1274 5 c0 -2 -18 -15 -39 -29 -113 -75 -214 -186 -269 -297
l-37 -74 0 -192 c0 -106 -1 -191 -2 -190 -2 1 -12 38 -24 82 -23 92 -28 250
-8 329 38 158 140 273 306 345 75 32 73 32 73 26z m661 -22 c168 -68 271 -181
314 -345 21 -79 19 -249 -4 -338 -11 -40 -21 -74 -23 -76 -1 -2 -1 62 0 141 7
287 -50 408 -267 571 -116 87 -115 86 -20 47z m-1210 -163 c16 -16 29 -36 29
-44 0 -8 14 -31 30 -52 17 -21 30 -46 30 -57 0 -23 -86 -108 -109 -108 -18 0
-41 18 -41 32 0 4 16 10 35 14 43 8 41 25 -3 38 -20 6 -35 20 -43 38 -15 36
-27 35 -40 -2 -12 -34 -17 -36 -45 -15 -10 8 -29 15 -40 15 -19 0 -21 4 -14
38 9 50 17 62 40 62 11 0 25 7 32 16 37 45 50 54 79 54 20 0 40 -10 60 -29z
m-265 -141 c22 -33 29 -38 44 -30 25 13 30 13 24 -3 -3 -8 2 -20 11 -27 8 -7
15 -19 15 -26 0 -8 9 -14 20 -14 11 0 20 -2 20 -5 0 -10 -48 -81 -64 -94 -13
-11 -17 -11 -22 4 -4 9 -2 27 5 41 19 42 13 62 -8 28 -30 -49 -38 -48 -45 9
-9 70 -17 97 -26 97 -4 0 -6 -30 -3 -67 l4 -68 -35 39 c-32 35 -50 76 -27 62
5 -4 14 6 19 21 6 16 11 22 11 14 1 -11 4 -11 16 -1 8 6 19 9 25 5 13 -8 13 1
-1 27 -11 21 -12 21 -25 3 -8 -10 -14 -14 -14 -9 0 9 20 34 27 34 1 0 15 -18
29 -40z m405 -188 c5 -99 13 -156 29 -207 13 -38 24 -90 27 -115 l3 -45 -29
55 c-83 153 -120 361 -78 439 30 54 41 26 48 -127z m1466 126 c39 -75 6 -275
-69 -421 -43 -83 -49 -50 -12 69 21 70 27 116 31 214 6 181 14 204 50 138z
m-1917 -103 c7 -8 22 -15 34 -15 27 0 46 -18 46 -43 0 -11 11 -28 25 -39 34
-26 34 -76 0 -108 -14 -13 -28 -20 -32 -16 -4 3 3 13 15 22 12 8 22 19 22 24
0 14 -35 21 -61 11 -20 -7 -28 -4 -50 22 l-25 30 -13 -31 c-16 -39 -30 -40
-70 -6 -37 31 -38 44 -9 87 55 78 89 97 118 62z m1990 -88 c0 -31 -10 -75 -23
-107 -27 -66 -117 -220 -129 -220 -15 0 -8 27 25 101 19 41 46 117 62 169 15
52 32 101 38 107 17 22 27 3 27 -50z m-1630 34 c5 -11 24 -61 41 -113 17 -51
46 -125 64 -164 43 -95 30 -114 -23 -32 -74 115 -112 206 -112 270 0 59 11 73
30 39z m2119 -108 c-1 -25 -3 -30 -6 -15 -4 19 -7 21 -19 11 -17 -14 -18 -45
-3 -55 6 -3 15 0 20 7 7 11 9 11 9 1 0 -19 -148 -86 -259 -117 -52 -15 -103
-31 -112 -36 -15 -8 -17 -4 -14 33 4 51 8 54 190 114 90 29 149 54 165 70 13
13 26 24 27 24 2 0 2 -17 2 -37z m-2534 -34 c57 -15 182 -58 237 -81 43 -18
46 -22 50 -62 l3 -41 -65 21 c-36 12 -96 32 -135 44 -97 29 -189 80 -192 105
-3 17 -2 17 7 -2 12 -30 27 -29 32 2 5 25 -13 51 -25 38 -4 -3 -7 4 -7 16 0
22 0 22 28 -4 15 -14 45 -30 67 -36z m1315 -49 c0 -6 -20 -19 -45 -30 -40 -17
-45 -23 -45 -51 0 -24 -4 -30 -16 -25 -8 3 -12 2 -9 -4 3 -6 13 -10 21 -10 9
0 14 -11 14 -36 0 -19 -4 -33 -9 -29 -5 3 -12 1 -15 -4 -7 -10 -25 -9 -43 2
-7 5 -13 4 -13 0 0 -5 -9 -9 -20 -9 -18 0 -20 6 -18 36 3 31 6 35 36 38 17 2
32 8 32 14 0 5 -7 8 -15 4 -8 -3 -15 -1 -15 4 0 5 -7 7 -15 4 -18 -7 -20 15
-3 50 13 30 27 36 102 40 31 1 59 6 63 9 9 10 13 9 13 -3z m1236 -15 c4 -8 4
-26 0 -38 -7 -30 -93 -70 -271 -127 -71 -23 -136 -44 -143 -47 -10 -4 -13 4
-10 28 4 41 20 50 198 109 69 23 144 52 165 65 49 28 54 29 61 10z m-2613 -15
c20 -12 94 -41 167 -66 190 -65 204 -72 208 -113 3 -29 1 -33 -15 -26 -10 4
-90 31 -178 60 -192 63 -235 86 -235 124 0 24 7 41 16 41 2 0 18 -9 37 -20z
m694 -77 c29 -64 90 -144 176 -236 38 -40 69 -83 77 -107 20 -60 52 -90 95
-90 19 0 35 -1 35 -2 -1 -2 -9 -27 -19 -55 l-18 -53 -35 35 c-23 24 -47 65
-69 123 -28 74 -42 96 -94 147 -116 113 -179 213 -190 297 -5 38 -4 40 6 18 7
-14 23 -49 36 -77z m1199 12 c-20 -61 -74 -139 -162 -236 -45 -51 -80 -100
-90 -128 -30 -84 -56 -131 -87 -162 l-30 -30 -16 48 -16 48 39 12 c53 17 62
27 86 91 14 38 39 76 74 112 29 30 69 76 90 102 40 50 115 189 117 216 1 10 4
8 6 -6 3 -13 -2 -43 -11 -67z m714 -43 c0 -59 -19 -76 -117 -107 -107 -33
-274 -86 -289 -92 -6 -2 -10 12 -8 38 2 52 -1 50 206 119 86 29 165 58 175 66
28 21 33 17 33 -24z m-2433 -56 c182 -59 193 -64 193 -96 0 -16 3 -36 6 -45 8
-20 0 -18 -191 41 -186 58 -214 71 -221 103 -3 14 -7 32 -10 39 -2 6 -1 18 2
26 4 12 15 10 57 -9 29 -12 103 -39 164 -59z m1585 30 c4 -6 7 -18 7 -26 0
-10 -2 -11 -6 -2 -9 22 -25 13 -21 -12 l5 -25 -101 6 c-56 3 -144 8 -196 12
l-95 6 105 18 c58 10 134 26 170 36 66 18 114 14 132 -13z m-778 -1 c54 -14
109 -25 122 -25 13 0 24 -4 24 -10 0 -5 -24 -10 -53 -10 -43 0 -144 -10 -237
-23 -11 -1 -14 6 -12 28 4 26 2 28 -12 16 -14 -12 -16 -12 -10 3 4 11 1 16
-12 17 -28 1 35 28 66 29 14 0 70 -11 124 -25z m1186 -39 c0 -18 -38 -57 -82
-85 -58 -35 -45 -37 17 -2 62 35 65 36 65 18 0 -19 -37 -51 -95 -80 -57 -30
-56 -33 5 -12 23 8 49 15 56 15 21 0 5 -29 -25 -45 -25 -14 -25 -14 -3 -15 13
0 22 -6 22 -15 0 -8 -10 -17 -22 -19 -117 -26 -117 -26 -54 -20 46 5 57 3 54
-8 -3 -7 -18 -16 -34 -19 l-29 -7 28 -1 c34 -1 35 -14 2 -29 -32 -15 -189 -16
-180 -2 3 6 24 10 45 10 21 0 42 5 46 12 5 8 -5 9 -34 5 -45 -5 -56 8 -29 35
8 7 12 19 10 25 -3 7 13 21 34 32 30 17 32 20 12 15 -39 -8 -45 12 -9 31 16 8
30 18 30 21 0 2 -9 0 -20 -6 -16 -8 -20 -8 -20 3 0 8 24 30 53 49 28 19 72 52
95 72 47 38 62 44 62 22z m-1672 -58 c85 -60 112 -84 112 -99 0 -4 -20 4 -46
18 -25 14 -47 23 -50 21 -2 -3 20 -18 51 -34 67 -35 76 -61 13 -38 -61 21 -58
9 3 -14 54 -20 75 -41 42 -43 -16 0 -16 -1 2 -8 11 -5 27 -4 36 2 21 13 49 2
49 -18 0 -15 -31 -21 -43 -9 -3 3 -28 7 -54 9 l-48 2 48 -10 c58 -13 61 -27 5
-28 l-43 -2 40 -6 c68 -11 77 -25 20 -32 l-50 -6 48 -1 c49 -2 64 -17 25 -25
-17 -3 -14 -5 10 -6 37 -1 43 -18 10 -24 -15 -3 -13 -4 5 -2 15 1 30 -2 33 -6
6 -10 -54 -28 -121 -36 -45 -6 -49 -5 -37 10 12 13 10 16 -15 19 l-28 3 30 17
30 17 -32 1 c-17 0 -35 4 -38 10 -5 9 6 13 60 23 11 2 -6 9 -37 16 -61 13 -77
30 -30 32 27 1 27 1 -5 10 -49 14 -50 29 -1 30 l43 1 -35 7 c-62 12 -85 41
-32 41 27 0 27 0 -7 18 -49 24 -54 47 -10 39 19 -3 43 -8 54 -12 11 -3 0 5
-25 18 -51 28 -97 73 -86 84 4 5 30 -4 57 -20 59 -33 64 -27 8 10 -40 27 -80
83 -58 83 6 0 50 -28 97 -62z m627 15 c-11 -7 -26 -13 -35 -13 -17 0 -40 -19
-40 -33 0 -5 9 -7 21 -4 12 3 18 3 15 0 -3 -4 -1 -12 5 -19 19 -23 1 -57 -52
-98 -27 -21 -51 -37 -53 -35 -11 13 -43 99 -38 103 3 3 12 6 21 6 9 0 23 5 31
10 12 7 11 13 -10 35 -31 33 -21 42 66 59 75 14 98 11 69 -11z m385 6 c60 -16
66 -23 41 -55 -24 -31 -16 -43 29 -44 46 -1 52 -12 30 -57 l-20 -41 -53 29
c-30 16 -62 38 -73 50 -20 22 -27 69 -9 63 5 -2 17 1 25 6 13 9 13 11 0 20 -8
6 -32 13 -52 16 -21 4 -46 12 -55 20 -15 11 -9 12 42 7 33 -3 76 -9 95 -14z
m-1454 -45 c21 8 51 -10 59 -34 5 -14 12 -19 24 -15 22 7 44 -18 38 -42 -4
-14 -5 -13 -6 5 -1 23 -21 32 -21 9 0 -8 -7 -14 -15 -14 -8 0 -15 4 -15 9 0 4
-5 8 -10 8 -6 0 -8 -11 -4 -25 9 -38 -10 -30 -55 23 -46 53 -52 47 -16 -15
l24 -43 -27 0 c-37 0 -72 11 -72 21 0 5 9 9 21 9 16 0 19 4 14 18 -16 38 -26
84 -21 95 2 7 5 1 5 -12 1 -20 3 -22 16 -11 14 11 14 15 -2 33 -16 19 -15 18
15 -2 18 -13 40 -20 48 -17z m217 -124 c14 -11 34 -20 46 -20 11 0 25 -6 31
-12 24 -29 70 -91 70 -95 0 -18 -32 -74 -48 -82 -30 -16 -32 -14 -16 17 19 38
18 42 -15 42 -20 0 -36 9 -50 27 -24 30 -30 28 -33 -10 -2 -22 -7 -27 -30 -27
-35 0 -44 -16 -22 -41 16 -18 16 -19 -3 -19 -30 0 -70 36 -76 67 -3 16 -8 38
-12 51 -6 19 -2 24 24 33 23 8 31 17 31 34 0 52 57 71 103 35z m1530 -5 c1 -6
-8 -14 -20 -20 -26 -11 -30 -25 -8 -25 8 0 15 -8 15 -17 0 -15 1 -15 14 2 8
11 19 16 30 12 23 -9 20 -26 -6 -36 -14 -5 -18 -10 -10 -15 7 -4 10 -12 7 -17
-4 -5 -1 -9 4 -9 6 0 11 9 11 20 0 11 7 20 15 20 11 0 14 7 9 25 -5 22 -3 25
20 25 30 0 34 -14 9 -29 -15 -9 -16 -12 -4 -20 16 -11 6 -31 -16 -31 -13 0
-13 -3 -3 -15 10 -12 8 -16 -11 -23 -15 -6 -18 -11 -11 -16 20 -12 3 -26 -31
-26 l-32 1 24 20 c21 17 22 22 10 30 -7 5 -22 9 -31 9 -21 0 -23 11 -7 27 12
12 4 33 -12 33 -6 0 -8 -9 -4 -19 4 -13 0 -23 -10 -29 -9 -5 -16 -13 -15 -18
0 -5 -9 -11 -21 -12 -14 -3 -20 1 -16 10 2 7 10 12 16 11 6 -2 11 2 11 7 0 6
-4 10 -9 10 -5 0 -1 17 9 37 10 20 16 42 13 49 -2 7 6 19 19 28 24 17 38 17
41 1z m-1034 -62 c10 -17 10 -17 11 0 0 29 41 17 60 -18 10 -16 15 -36 12 -42
-2 -7 1 -13 8 -13 7 0 10 -6 7 -14 -3 -8 1 -17 9 -20 20 -8 8 -26 -18 -26 -14
0 -18 5 -14 15 3 9 -1 18 -10 22 -8 3 -13 12 -10 19 3 8 -1 14 -10 14 -11 0
-15 6 -11 20 3 11 1 22 -3 25 -15 9 -21 -14 -10 -35 9 -16 8 -20 -5 -20 -9 0
-22 -6 -30 -13 -11 -11 -9 -16 8 -27 l21 -13 -23 -8 c-29 -11 -44 -2 -38 22 3
11 2 17 -3 14 -4 -3 -13 2 -20 10 -9 10 -9 15 -1 15 19 0 12 17 -10 23 -25 7
-16 27 13 27 11 0 22 -8 25 -20 4 -16 7 -17 19 -5 18 17 18 25 0 25 -18 0 -29
16 -21 30 10 16 33 12 44 -7z m-426 -173 l139 0 29 -32 c64 -68 64 -68 -74
-68 -106 0 -258 17 -320 36 -14 4 -57 70 -57 87 0 3 33 -2 73 -9 39 -8 134
-14 210 -14z m2195 13 c-38 -79 -40 -81 -97 -92 -97 -19 -194 -24 -306 -16
l-107 7 43 45 44 45 130 -4 c102 -4 252 7 293 21 2 1 2 -2 0 -6z m-1781 -47
c-3 -7 0 -13 6 -12 7 0 13 -3 14 -8 1 -5 7 -13 15 -17 10 -7 6 -15 -17 -34
-27 -23 -27 -25 -5 -14 14 6 40 23 59 37 33 25 34 25 48 6 8 -10 17 -18 21
-16 14 7 12 -16 -3 -28 -8 -7 -15 -18 -15 -26 0 -15 -81 -84 -99 -84 -17 0 13
41 53 70 34 25 45 68 17 66 -16 -1 -62 -39 -55 -45 2 -2 12 4 23 13 14 13 21
14 26 6 7 -12 -19 -39 -73 -77 -29 -20 -41 -9 -17 17 20 23 14 26 -15 8 -27
-17 -37 -2 -14 23 19 22 19 22 -3 10 -12 -6 -29 -11 -39 -11 -16 0 -16 1 1 20
18 20 18 20 -13 14 -51 -10 -39 14 21 41 60 27 59 32 -3 10 -23 -8 -54 -15
-68 -15 -42 0 -12 20 60 40 78 23 81 23 75 6z m948 -6 c3 -6 -1 -13 -9 -16 -9
-3 -16 -13 -16 -22 0 -14 2 -13 13 2 8 11 19 15 30 10 21 -8 17 -30 -6 -28 -9
1 -13 -4 -10 -12 3 -8 0 -14 -6 -14 -6 0 -20 -9 -32 -21 l-21 -21 23 -22 23
-21 -18 23 c-15 17 -16 22 -5 22 17 0 89 -65 89 -79 0 -15 -13 -14 -28 1 -9 9
-12 9 -12 1 0 -7 5 -15 10 -18 16 -10 12 -25 -5 -19 -40 16 -149 184 -119 184
5 0 23 13 39 29 32 31 50 38 60 21z m-1510 -60 c28 -6 129 -13 225 -16 165 -6
177 -8 208 -31 41 -31 43 -57 5 -49 -55 11 -121 16 -303 26 -180 10 -186 11
-207 36 -13 14 -23 32 -23 40 0 10 7 13 23 9 12 -3 45 -10 72 -15z m2295 -4
c0 -8 -8 -24 -19 -37 -18 -23 -24 -23 -257 -31 -132 -4 -249 -10 -262 -13 -33
-8 -26 21 11 49 26 19 43 21 225 23 108 1 215 6 237 11 58 14 65 14 65 -2z
m-1980 -97 c169 -13 203 -21 218 -54 7 -14 12 -27 12 -29 0 -2 -105 -3 -232
-2 -259 2 -272 5 -321 70 l-27 35 107 -5 c60 -3 169 -9 243 -15z m1894 -20
c-51 -54 -51 -54 -316 -54 -137 0 -248 2 -248 5 0 3 11 18 24 35 22 27 29 30
112 36 49 3 172 7 273 7 l185 2 -30 -31z m-1866 -97 c3 -11 0 -12 -16 -3 -29
16 -32 14 -32 -17 0 -22 -7 -32 -27 -41 l-28 -13 28 -20 c15 -11 27 -27 27
-36 0 -10 4 -23 9 -31 8 -12 12 -12 25 -2 9 8 16 9 16 3 0 -12 -44 -42 -63
-42 -8 0 -26 9 -40 20 -14 11 -32 20 -41 20 -9 0 -19 12 -22 28 -4 15 -16 43
-28 63 -24 43 -14 63 38 78 46 14 148 9 154 -7z m711 -54 c5 -13 6 -29 4 -35
-3 -7 1 -13 9 -13 10 0 13 9 10 30 -3 23 0 30 12 30 9 0 17 -8 17 -17 1 -16 2
-16 6 -1 2 9 11 19 20 22 12 5 14 0 11 -28 l-4 -34 81 -7 c99 -8 255 -36 255
-46 0 -4 -16 -3 -36 3 -20 5 -37 8 -39 6 -2 -2 -5 -21 -7 -43 -3 -33 1 -41 22
-52 22 -11 26 -10 32 5 5 14 7 12 7 -6 1 -20 -2 -22 -21 -16 -174 55 -459 69
-623 29 -73 -17 -92 -18 -45 -1 31 11 35 17 36 49 1 33 -2 37 -25 38 -26 1
-26 1 3 9 16 5 83 15 148 21 65 7 114 15 109 18 -8 5 -15 35 -12 54 2 16 22 6
30 -15z m-434 2 c3 -5 18 -7 34 -4 29 6 61 -15 61 -41 0 -8 8 -19 18 -25 14
-9 11 -10 -16 -7 -27 3 -36 -1 -44 -18 -7 -16 -16 -20 -42 -17 -46 5 -54 -14
-21 -48 17 -17 23 -30 16 -34 -6 -4 -11 -14 -11 -22 0 -19 54 -19 70 1 7 8 16
12 21 9 14 -8 10 -34 -5 -34 -7 0 -25 -9 -39 -20 -32 -25 -48 -25 -100 1 -66
33 -77 47 -77 95 0 24 -5 54 -11 68 -16 33 10 76 46 76 13 0 30 7 37 15 15 16
54 20 63 5z m568 -180 c90 -9 185 -28 241 -49 22 -9 23 -11 13 -68 -6 -32 -11
-59 -12 -61 -1 -1 -26 6 -56 17 -165 56 -394 59 -600 6 -26 -6 -27 -5 -33 49
-4 31 -5 60 -2 65 3 5 48 16 99 25 83 14 124 19 222 24 17 1 74 -3 128 -8z
m-717 -52 c4 -6 3 -8 -3 -5 -6 4 -16 0 -22 -7 -10 -11 -7 -18 10 -30 13 -8 25
-13 28 -10 3 3 -1 9 -9 14 -27 17 12 12 75 -10 69 -24 95 -25 121 -5 10 8 24
15 31 15 14 0 23 -110 10 -127 -15 -20 -29 -15 -17 6 18 34 11 43 -16 22 -35
-27 -44 -26 -44 3 0 24 -1 24 -27 10 -35 -17 -52 -18 -92 -1 -29 12 -30 14
-14 30 13 13 14 17 4 17 -8 0 -29 12 -48 26 -33 25 -34 27 -17 45 20 22 21 22
30 7z m784 -99 c30 -6 81 -17 112 -26 l58 -16 -6 -41 c-4 -22 -8 -43 -10 -45
-2 -2 -52 6 -111 18 -127 25 -234 27 -398 6 -66 -8 -126 -15 -132 -15 -9 0
-13 16 -13 48 l0 49 93 17 c147 26 280 28 407 5z"/>
</g>
</svg>
